<mxfile host="app.diagrams.net" modified="2024-06-13T05:15:27.433Z" agent="Mozilla/5.0 (Windows NT 10.0; Win64; x64) AppleWebKit/537.36 (KHTML, like Gecko) Chrome/125.0.0.0 Safari/537.36" version="24.5.4" etag="mgPrlBFqkAapU1x8XMAo" type="github">
  <diagram name="Halaman-1" id="E9Dyls-5C6ttUg5Wk76a">
    <mxGraphModel>
      <root>
        <mxCell id="0" />
        <mxCell id="1" parent="0" />
      </root>
    </mxGraphModel>
  </diagram>
</mxfile>
